<svg xmlns="http://www.w3.org/2000/svg" viewBox="0 0 18 18">
	<defs>
		<style>
			.a{fill:#f1f0f0;}.b{fill:#d81f2a;}.c{fill:#2057a7;}
		</style>
	</defs>
	<title>
		USD
	</title>
	<path class="a" d="M150,160a9,9,0,1,0-9-9A9,9,0,0,0,150,160Z" transform="translate(-141 -142)" />
	<path class="b" d="M157.67,146.3H149.6v-2.35h6A9,9,0,0,1,157.67,146.3ZM159,151h-9.4v-2.35h9.09A9,9,0,0,1,159,151Zm-9,9a8.94,8.94,0,0,0,5.6-2H144.4A8.94,8.94,0,0,0,150,160Zm7.68-4.3H142.32a8.91,8.91,0,0,1-1-2.35h17.37a8.9,8.9,0,0,1-1,2.35Z" transform="translate(-141 -142)" />
	<path class="c" d="M145.18,143.4Z" transform="translate(-141 -142)" />
	<path class="c" d="M145.18,143.4H146l-.77.55.29.9-.76-.55-.76.55.25-.78a9,9,0,0,0-1.74,2h.27l-.49.35-.22.39.23.72-.43-.32-.3.7.25.78h1l-.77.51.29.9-.76-.55-.45.33A8.34,8.34,0,0,0,141,151h9v-9A9,9,0,0,0,145.18,143.4Z" transform="translate(-141 -142)" />
	<path class="c" d="M145.52,150.1Z" transform="translate(-141 -142)" />
	<polygon class="a" points="4.23 7.2 4.52 8.1 3.76 7.56 3 8.1 3.29 7.2 2.53 6.65 3.48 6.65 3.77 5.75 4.06 6.65 5 6.65 4.23 7.2" />
	<polygon class="a" points="4.23 4.58 4.52 5.48 3.76 4.93 3 5.48 3.29 4.58 2.52 4 3.47 4 3.76 3.1 4 4 5 4 4.23 4.58" />
	<polygon class="a" points="6.98 7.58 7.74 8.13 7.45 7.23 8.22 6.68 7.27 6.68 6.98 5.78 6.69 6.68 5.74 6.68 6.5 7.23 6.21 8.13 6.98 7.58" />
	<polygon class="a" points="7.45 4.58 7.74 5.48 7 4.93 6.24 5.48 6.53 4.58 5.75 4 6.7 4 6.99 3.1 7.28 4 8.23 4 7.45 4.58" />
	<polygon class="a" points="7.74 2.86 7.45 1.96 8.22 1.41 7.27 1.41 6.98 0.51 6.69 1.41 5.74 1.41 6.5 1.96 6.21 2.86 6.97 2.31 7.74 2.86" />
</svg>
